# xmcd
#
# Track frame offsets: 
#        150
#        32337
#        39367
#        204651
#        216701
#
# Disc length: 3733 seconds
#
# Revision: 0
# Processed by: cddbd v1.5.2PL0 Copyright (c) Steve Scherf et al.
# Submitted via: ExactAudioCopy v0.95b3
#
DISCID=430e9305
DTITLE=Jimi Hendrix  - In the Studio Reclamation 1967-1970 - Disc 06  
DTITLE=FLAC
DYEAR=1900
DGENRE=
TTITLE0=Cherokee Mist
TTITLE1=Jam H290
TTITLE2=Voodoo Chile
TTITLE3=Ships Passing In The Night
TTITLE4=Calling All Devil's Children Jam
EXTD=
EXTT0=
EXTT1=
EXTT2=
EXTT3=
EXTT4=
PLAYORDER=
